<?xml version="1.0" encoding="UTF-8" standalone="no"?>
<!DOCTYPE svg PUBLIC "-//W3C//DTD SVG 20010904//EN"
              "http://www.w3.org/TR/2001/REC-SVG-20010904/DTD/svg10.dtd">

<svg xmlns="http://www.w3.org/2000/svg"
     width="93.1381mm" height="46.0399mm"
     viewBox="0 0 528 261">
  <path id="Selection"
        fill="#fff"
        d="M 262.99,26.73
           C 267.67,25.95 266.85,26.72 271.09,27.83
             284.41,31.30 289.80,37.80 293.52,51.00
             295.64,58.55 296.96,66.13 297.00,74.00
             297.10,94.76 297.86,112.36 286.49,130.96
             283.68,135.56 275.26,144.05 270.00,145.50
             264.24,147.09 257.60,145.04 255.65,138.98
             254.90,136.65 255.00,133.47 255.00,131.00
             255.00,131.00 255.00,62.00 255.00,62.00
             255.00,62.00 256.00,42.00 256.00,42.00
             255.89,32.44 252.67,30.02 262.99,26.73 Z
           M 444.00,134.00
           C 448.76,129.80 451.29,126.18 452.97,120.00
             452.97,120.00 456.17,107.45 456.17,107.45
             458.17,104.55 462.13,104.45 464.69,106.67
             468.91,110.33 466.61,119.45 465.19,124.00
             463.51,129.40 461.69,134.04 457.85,138.34
             451.42,145.53 440.98,147.94 433.04,141.58
             424.60,134.82 425.72,124.36 424.83,115.00
             424.83,115.00 423.01,94.00 423.01,94.00
             423.01,94.00 425.00,78.00 425.00,78.00
             425.00,78.00 425.00,69.00 425.00,69.00
             425.00,69.00 428.51,52.00 428.51,52.00
             431.06,41.87 436.52,31.40 448.00,30.52
             457.11,29.82 468.04,36.80 466.73,47.00
             466.18,51.33 462.14,54.65 458.14,52.17
             455.60,50.59 454.86,47.65 454.00,45.00
             449.88,51.18 447.18,54.81 444.71,62.00
             442.65,67.99 441.01,80.58 441.00,87.00
             441.00,87.00 441.00,117.00 441.00,117.00
             441.08,123.11 442.87,128.02 444.00,134.00 Z
           M 148.92,131.00
           C 164.58,122.64 172.97,99.90 173.00,83.00
             173.00,83.00 173.00,55.00 173.00,55.00
             173.00,55.00 174.00,41.00 174.00,41.00
             174.01,38.81 173.78,35.16 175.02,33.31
             177.19,30.09 182.07,31.09 184.34,34.53
             186.23,37.39 185.99,41.69 186.00,45.00
             186.04,70.79 187.67,101.31 173.34,123.99
             167.52,133.19 158.22,142.21 147.00,143.71
             142.37,144.33 137.82,144.33 134.34,140.77
             128.77,135.08 128.01,118.84 128.00,111.00
             128.00,111.00 128.00,89.00 128.00,89.00
             128.00,89.00 129.00,73.00 129.00,73.00
             129.01,65.63 128.23,53.66 131.02,47.05
             133.83,40.38 141.54,39.86 146.47,44.61
             149.91,47.93 151.15,54.37 150.82,59.00
             150.82,59.00 148.92,85.00 148.92,85.00
             147.36,100.40 145.23,115.68 148.92,131.00 Z
           M 275.00,40.00
           C 271.75,45.60 273.00,60.07 272.86,67.00
             272.86,67.00 272.86,109.00 272.86,109.00
             272.86,109.00 272.86,128.00 272.86,128.00
             279.05,123.18 280.52,118.12 282.67,111.00
             286.97,96.75 286.59,76.70 284.58,62.00
             283.31,52.75 282.57,46.31 275.00,40.00 Z
           M 106.00,95.00
           C 110.52,96.67 114.99,99.18 117.87,103.17
             127.40,116.34 123.83,144.95 109.28,153.42
             104.56,156.18 100.21,155.36 95.28,155.98
             92.03,156.38 90.94,158.17 88.00,158.65
             80.71,159.85 81.01,152.96 81.00,148.00
             81.00,148.00 81.00,88.00 81.00,88.00
             81.00,88.00 83.00,61.00 83.00,61.00
             83.01,56.62 81.77,43.54 85.43,41.02
             87.24,39.78 90.84,40.00 93.00,40.00
             93.00,40.00 102.00,40.00 102.00,40.00
             114.74,40.07 119.79,46.87 120.26,59.00
             120.38,62.14 120.04,68.02 119.22,71.00
             116.44,81.05 111.24,86.73 106.00,95.00 Z
           M 378.00,87.00
           C 378.00,87.00 377.00,111.00 377.00,111.00
             377.00,111.00 378.00,124.00 378.00,124.00
             378.00,124.00 378.82,146.00 378.82,146.00
             379.21,151.51 378.20,155.93 372.00,156.66
             359.18,158.17 360.52,146.83 359.91,138.00
             359.91,138.00 359.00,128.00 359.00,128.00
             359.00,128.00 359.00,91.00 359.00,91.00
             359.00,91.00 359.96,79.00 359.96,79.00
             359.96,79.00 359.96,67.00 359.96,67.00
             360.01,63.67 360.80,49.75 362.31,47.50
             365.68,42.49 376.17,44.71 379.90,53.00
             379.90,53.00 384.52,67.00 384.52,67.00
             384.52,67.00 395.22,102.00 395.22,102.00
             397.43,109.69 400.70,123.20 404.00,130.00
             404.00,130.00 407.00,105.00 407.00,105.00
             407.00,105.00 407.00,80.00 407.00,80.00
             406.94,75.48 405.29,66.68 404.19,62.00
             403.77,59.24 402.54,55.80 404.19,53.15
             406.28,49.16 411.90,49.18 414.77,55.09
             417.45,60.63 418.99,77.50 419.00,84.00
             419.00,84.00 419.00,105.00 419.00,105.00
             419.00,105.00 416.16,128.00 416.16,128.00
             415.28,136.22 413.74,155.85 401.04,152.56
             394.85,150.95 393.53,141.36 392.12,136.00
             392.12,136.00 378.00,87.00 378.00,87.00 Z
           M 486.00,142.00
           C 490.02,140.75 494.34,139.04 498.54,140.72
             502.35,142.24 504.78,146.18 501.55,149.69
             498.98,152.48 494.50,151.90 491.00,152.43
             487.70,152.92 482.56,155.01 479.96,154.48
             470.88,152.64 472.38,144.91 471.91,138.00
             471.91,138.00 471.00,128.00 471.00,128.00
             471.00,128.00 473.00,101.00 473.00,101.00
             473.00,101.00 474.00,73.00 474.00,73.00
             474.00,73.00 475.42,60.00 475.42,60.00
             477.00,49.38 478.60,44.20 491.00,44.00
             495.57,43.93 502.44,43.54 502.63,49.97
             502.83,57.06 493.73,54.26 491.60,59.15
             490.86,60.84 491.00,65.72 490.71,68.00
             490.71,68.00 489.17,78.00 489.17,78.00
             488.54,84.49 489.53,83.47 488.00,92.00
             492.19,92.00 503.13,92.27 502.45,99.03
             501.88,104.72 489.98,102.15 487.02,107.15
             485.81,109.20 486.00,112.65 486.00,115.00
             486.00,115.00 486.00,142.00 486.00,142.00 Z
           M 209.00,86.00
           C 209.00,86.00 209.00,119.00 209.00,119.00
             209.00,119.00 209.96,131.00 209.96,131.00
             209.96,131.00 209.96,146.00 209.96,146.00
             210.00,147.89 210.12,151.18 209.40,152.87
             207.46,157.46 200.00,157.65 196.21,155.57
             191.06,152.74 191.01,138.52 191.00,133.00
             191.00,133.00 191.00,84.00 191.00,84.00
             191.00,84.00 192.00,69.00 192.00,69.00
             192.04,65.03 191.50,51.98 192.74,49.11
             195.58,42.49 206.59,45.01 209.79,50.06
             213.16,55.37 217.04,70.17 219.19,77.00
             219.19,77.00 228.57,109.00 228.57,109.00
             230.85,116.59 233.33,121.83 234.00,130.00
             234.00,130.00 236.00,130.00 236.00,130.00
             236.00,124.35 236.47,118.59 237.30,113.00
             237.30,113.00 238.91,105.00 238.91,105.00
             238.91,105.00 238.91,92.00 238.91,92.00
             238.91,92.00 237.42,72.00 237.42,72.00
             236.96,68.78 234.17,56.04 234.83,54.11
             236.00,50.65 240.29,49.26 243.29,51.29
             245.89,53.05 247.80,58.03 248.47,61.00
             248.47,61.00 249.17,72.00 249.17,72.00
             249.17,72.00 251.00,90.00 251.00,90.00
             251.00,90.00 247.93,128.00 247.93,128.00
             247.93,128.00 246.46,136.00 246.46,136.00
             245.26,142.39 244.89,151.00 237.00,152.38
             235.35,152.82 233.61,152.84 232.02,152.38
             226.18,150.07 224.69,140.37 223.27,135.00
             223.27,135.00 215.89,109.00 215.89,109.00
             214.27,102.57 211.83,91.55 209.00,86.00 Z
           M 57.00,108.00
           C 46.65,108.04 47.38,109.76 44.24,120.00
             44.24,120.00 39.31,140.00 39.31,140.00
             38.65,143.55 38.39,148.75 36.55,151.87
             32.67,158.45 23.27,154.98 24.50,147.00
             24.50,147.00 33.99,113.02 33.99,113.02
             34.64,107.18 26.85,106.74 29.74,100.23
             31.80,95.59 36.50,98.74 39.72,93.85
             41.24,91.56 41.79,87.70 42.56,85.00
             42.56,85.00 48.07,68.00 48.07,68.00
             49.51,63.75 53.27,51.06 55.80,48.31
             59.15,44.69 67.43,45.40 70.40,49.23
             72.72,52.21 73.94,71.41 74.00,76.00
             74.00,76.00 74.00,107.00 74.00,107.00
             74.00,107.00 74.96,119.00 74.96,119.00
             74.96,119.00 74.96,132.00 74.96,132.00
             74.99,134.74 75.22,138.36 73.69,140.76
             71.11,144.75 64.04,145.00 61.57,140.76
             58.84,136.10 59.29,126.35 58.91,121.00
             58.91,121.00 57.00,108.00 57.00,108.00 Z
           M 313.00,155.00
           C 306.78,155.99 302.50,154.16 303.22,147.00
             303.22,147.00 310.79,120.00 310.79,120.00
             311.39,118.00 313.12,112.07 312.53,110.26
             311.59,107.41 306.31,106.10 307.95,101.06
             309.92,94.99 315.49,99.52 319.03,91.98
             319.03,91.98 328.64,62.00 328.64,62.00
             329.67,58.68 332.23,49.90 334.65,47.74
             337.59,45.11 347.76,44.61 350.30,51.18
             351.28,53.70 350.89,58.10 351.17,61.00
             351.17,61.00 352.00,84.00 352.00,84.00
             352.00,84.00 353.10,99.00 353.10,99.00
             353.10,99.00 353.10,117.00 353.10,117.00
             353.03,122.64 355.15,134.04 353.10,138.82
             351.33,143.92 344.76,145.24 341.65,142.40
             338.22,139.27 338.17,132.28 337.96,128.00
             337.96,128.00 336.00,108.00 336.00,108.00
             336.00,108.00 327.42,109.60 327.42,109.60
             327.42,109.60 322.35,121.00 322.35,121.00
             322.35,121.00 315.00,153.00 315.00,153.00
             323.23,150.69 324.64,153.70 329.00,160.00
             335.55,148.74 351.20,146.54 355.89,160.00
             359.80,171.21 351.82,181.57 343.70,188.42
             341.16,190.57 334.60,194.46 333.64,197.13
             332.76,199.55 335.30,208.57 336.51,210.90
             339.94,217.54 347.74,209.14 350.95,206.19
             358.60,199.15 357.69,185.65 371.00,183.76
             373.32,183.43 375.84,183.61 377.85,184.94
             383.98,188.97 380.18,199.70 373.70,202.68
             370.88,203.98 367.35,203.69 365.77,205.59
             363.79,207.98 365.43,214.50 367.94,216.09
             370.48,217.69 373.29,214.59 374.92,212.95
             379.21,208.63 382.36,202.67 388.00,200.00
             389.08,206.40 385.23,208.50 381.28,213.00
             378.24,216.47 374.56,221.27 370.00,222.75
             361.30,225.58 355.67,216.18 355.00,209.00
             350.08,213.58 337.44,225.71 330.38,220.26
             327.79,218.27 326.24,213.95 325.00,211.00
             322.27,217.31 315.47,231.27 307.92,220.94
             307.12,219.86 306.27,218.24 305.72,217.00
             304.87,215.04 304.44,213.07 304.00,211.00
             300.66,213.40 295.73,218.58 291.28,217.46
             289.51,217.01 284.90,213.28 283.00,212.00
             281.91,214.44 280.82,216.82 279.21,218.98
             274.43,225.41 268.27,226.00 264.98,218.00
             264.98,218.00 259.00,188.00 259.00,188.00
             256.94,193.80 253.19,199.00 251.85,205.00
             250.55,210.81 252.48,213.17 250.94,215.69
             249.13,218.66 243.62,219.41 241.00,212.00
             238.84,214.35 232.90,222.20 230.54,223.12
             223.14,226.00 222.01,213.31 222.00,209.00
             214.40,214.88 210.55,218.17 202.00,211.00
             200.47,213.61 199.25,215.63 196.91,217.66
             182.12,230.49 173.10,204.93 178.15,193.00
             182.00,183.91 194.55,179.45 198.00,192.00
             191.82,192.80 188.30,190.16 187.18,202.00
             186.88,205.11 187.73,215.04 192.87,213.51
             194.11,213.15 195.39,211.81 196.23,210.89
             201.65,204.94 198.83,203.05 201.21,197.00
             204.11,189.65 213.63,181.16 222.00,182.28
             222.00,182.28 228.00,184.00 228.00,184.00
             228.00,184.00 228.00,189.00 228.00,189.00
             228.00,189.00 222.00,190.00 222.00,190.00
             222.00,190.00 229.40,191.60 229.40,191.60
             229.40,191.60 231.00,199.00 231.00,199.00
             231.00,199.00 230.00,217.00 230.00,217.00
             232.95,213.76 237.74,208.31 238.70,204.00
             239.56,200.18 238.16,193.29 240.02,190.15
             240.73,188.96 241.71,188.08 243.04,187.66
             248.70,185.85 248.98,193.54 250.00,197.00
             251.59,192.26 253.80,185.67 258.10,182.74
             261.90,180.15 267.19,180.69 269.30,185.11
             270.89,188.42 270.99,194.33 271.04,198.00
             271.04,198.00 271.04,211.00 271.04,211.00
             271.04,211.00 272.00,220.00 272.00,220.00
             275.31,216.36 278.47,212.47 280.60,208.00
             284.53,199.77 283.71,188.58 296.00,188.07
             298.40,187.97 299.76,188.36 302.00,189.00
             302.11,177.20 305.81,164.39 313.00,155.00 Z
           M 99.00,85.00
           C 99.00,85.00 106.82,72.00 106.82,72.00
             108.94,67.40 111.19,61.07 109.11,56.09
             107.95,53.32 104.44,50.30 101.31,52.08
             98.55,53.65 99.03,58.29 99.00,61.00
             98.90,67.82 96.51,78.73 99.00,85.00 Z
           M 58.00,77.00
           C 58.00,77.00 51.00,97.00 51.00,97.00
             51.00,97.00 57.00,97.00 57.00,97.00
             57.00,97.00 58.00,77.00 58.00,77.00 Z
           M 336.00,79.00
           C 336.00,79.00 330.00,97.00 330.00,97.00
             330.00,97.00 336.00,97.00 336.00,97.00
             336.00,97.00 336.00,79.00 336.00,79.00 Z
           M 98.00,143.00
           C 100.54,142.85 102.51,142.88 104.67,141.26
             111.25,136.33 114.27,117.86 109.27,111.15
             107.29,108.50 100.58,106.26 98.26,109.57
             97.37,110.85 97.47,114.35 97.11,116.00
             97.11,116.00 97.11,124.00 97.11,124.00
             97.11,124.00 97.11,134.00 97.11,134.00
             97.05,138.21 97.27,138.95 98.00,143.00 Z
           M 315.00,153.00
           C 315.00,153.00 314.00,153.00 314.00,153.00
             314.00,153.00 315.00,154.00 315.00,154.00
             315.00,154.00 315.00,153.00 315.00,153.00 Z
           M 314.00,154.00
           C 314.00,154.00 313.00,154.00 313.00,154.00
             313.00,154.00 314.00,155.00 314.00,155.00
             314.00,155.00 314.00,154.00 314.00,154.00 Z
           M 332.00,191.00
           C 340.95,187.92 349.70,179.22 352.22,170.00
             353.45,165.48 351.74,154.67 344.99,156.66
             334.11,159.85 332.00,181.65 332.00,191.00 Z
           M 323.00,158.00
           C 316.63,165.14 315.35,176.28 312.00,185.00
             319.28,182.40 325.15,171.70 324.73,164.00
             324.60,161.63 323.88,160.12 323.00,158.00 Z
           M 321.00,185.00
           C 318.47,186.41 314.47,188.67 313.02,191.21
             309.90,196.68 313.14,213.43 316.00,219.00
             316.00,219.00 322.73,206.00 322.73,206.00
             322.73,206.00 321.00,185.00 321.00,185.00 Z
           M 435.00,213.00
           C 433.16,215.37 431.57,217.47 428.99,219.11
             414.13,228.54 407.29,202.37 412.61,192.01
             416.64,184.16 427.94,179.40 432.00,192.01
             427.50,192.58 425.20,191.30 423.30,194.20
             421.12,197.52 420.28,205.17 421.62,209.01
             422.28,210.89 423.65,213.70 426.01,213.66
             428.53,213.63 432.14,208.75 433.33,206.72
             437.32,199.94 437.23,192.39 446.00,188.72
             448.03,188.04 450.76,187.80 452.83,188.72
             454.43,189.21 455.82,190.52 457.13,191.60
             459.21,193.34 460.77,194.31 461.79,197.05
             462.14,199.00 462.00,203.77 461.79,206.00
             461.79,206.00 473.00,204.00 473.00,204.00
             469.41,208.65 467.78,209.46 462.00,210.00
             460.59,218.58 456.74,221.99 448.00,221.99
             445.16,221.99 442.54,221.94 440.10,220.26
             437.40,218.41 436.30,215.85 435.00,213.00 Z
           M 221.00,191.00
           C 211.65,193.45 210.62,200.61 213.00,209.00
             222.90,204.98 221.00,200.22 221.00,191.00 Z
           M 366.00,199.00
           C 367.93,198.49 374.93,195.67 372.84,192.61
             370.06,188.55 366.44,197.22 366.00,199.00 Z
           M 301.00,195.00
           C 298.74,195.07 296.62,194.88 295.02,196.57
             291.76,199.54 290.84,207.88 295.02,209.83
             299.62,211.82 301.91,204.05 301.87,201.00
             301.87,201.00 301.00,195.00 301.00,195.00 Z
           M 450.00,196.00
           C 445.98,199.75 443.84,206.66 445.89,212.00
             449.43,221.20 455.68,217.19 458.00,210.00
             451.57,205.81 450.37,203.61 450.00,196.00 Z
           M 458.00,197.00
           C 455.56,200.53 456.41,201.87 459.00,205.00
             459.00,205.00 458.00,197.00 458.00,197.00 Z
           M 473.31,216.08
           C 478.80,214.86 479.26,219.45 477.38,220.97
             475.08,222.85 468.68,221.06 473.31,216.08 Z" />
</svg>
