<?xml version="1.0" encoding="UTF-8" standalone="no"?>
<!DOCTYPE svg PUBLIC "-//W3C//DTD SVG 20010904//EN"
              "http://www.w3.org/TR/2001/REC-SVG-20010904/DTD/svg10.dtd">

<svg xmlns="http://www.w3.org/2000/svg"
     width="90.3158mm" height="26.6361mm"
     viewBox="0 0 512 151">
  <path id="Selection #3"
        fill="#fff"
        d="M 252.96,7.64
           C 257.17,7.29 256.29,7.84 260.09,8.83
             274.75,12.63 279.94,20.61 283.11,35.00
             288.30,58.53 288.39,92.11 274.75,112.91
             272.05,117.02 264.61,124.50 259.99,126.19
             253.46,128.57 246.31,126.07 244.16,119.00
             243.92,116.87 244.00,114.20 244.16,112.00
             244.16,112.00 244.16,46.00 244.16,46.00
             244.16,46.00 245.00,24.00 245.00,24.00
             244.98,11.11 242.62,10.44 252.96,7.64 Z
           M 435.00,115.00
           C 437.61,110.29 440.10,107.40 441.70,102.00
             441.70,102.00 445.17,88.45 445.17,88.45
             447.17,85.55 451.13,85.45 453.69,87.67
             457.91,91.33 455.61,100.45 454.19,105.00
             452.54,110.30 450.53,115.02 446.86,119.30
             440.29,126.93 428.89,128.87 421.13,121.73
             413.70,114.88 414.68,104.88 413.83,96.00
             413.83,96.00 412.02,78.00 412.02,78.00
             412.02,78.00 414.29,49.00 414.29,49.00
             414.29,49.00 417.51,33.00 417.51,33.00
             420.05,23.04 425.81,12.51 437.00,11.53
             450.13,10.37 457.08,22.38 455.53,28.98
             454.52,33.29 449.86,35.27 446.30,32.40
             444.35,30.83 443.74,28.27 443.00,26.00
             438.34,32.59 435.81,36.11 433.38,44.00
             430.18,54.39 430.00,65.25 430.15,76.00
             430.15,76.00 430.15,103.00 430.15,103.00
             430.15,103.00 433.00,115.00 433.00,115.00
             433.00,115.00 435.00,115.00 435.00,115.00 Z
           M 165.31,13.04
           C 172.99,10.57 174.91,17.96 175.00,24.00
             175.00,24.00 175.00,55.00 175.00,55.00
             174.72,78.40 165.55,116.43 139.83,123.93
             124.87,128.30 118.71,120.15 118.00,106.00
             118.00,106.00 117.00,92.00 117.00,92.00
             117.00,92.00 118.00,41.00 118.00,41.00
             118.05,37.00 118.85,28.45 121.56,25.47
             128.36,17.99 140.91,24.58 139.82,40.00
             139.82,40.00 138.17,58.00 138.17,58.00
             138.17,58.00 137.58,68.00 137.58,68.00
             136.37,77.15 135.99,85.78 136.00,95.00
             136.00,97.85 136.31,107.55 138.02,109.54
             140.36,112.26 144.39,107.61 145.96,106.00
             150.76,101.06 156.53,91.57 158.55,85.00
             163.27,69.64 161.98,53.86 162.00,38.00
             162.00,38.00 163.31,16.06 163.31,16.06
             163.88,13.98 164.06,14.37 165.31,13.04 Z
           M 264.00,21.00
           C 260.75,26.60 262.00,41.07 261.86,48.00
             261.86,48.00 261.86,90.00 261.86,90.00
             261.86,90.00 261.86,109.00 261.86,109.00
             268.42,103.88 269.42,99.48 271.67,92.00
             275.97,77.67 275.60,57.78 273.58,43.00
             272.44,34.73 271.35,26.10 264.00,21.00 Z
           M 94.00,75.00
           C 98.57,77.39 103.80,79.87 106.87,84.17
             116.30,97.36 112.79,125.97 98.28,134.42
             93.31,137.33 87.82,136.40 84.00,137.15
             84.00,137.15 77.00,139.65 77.00,139.65
             69.70,140.82 70.01,133.99 70.00,129.00
             70.00,129.00 70.00,70.00 70.00,70.00
             70.00,70.00 72.00,43.00 72.00,43.00
             72.01,37.91 70.44,24.80 75.15,22.02
             77.20,20.81 80.65,21.00 83.00,21.00
             83.00,21.00 92.00,21.00 92.00,21.00
             105.70,21.19 109.72,30.91 109.26,43.00
             108.86,53.32 102.97,69.19 94.00,75.00 Z
           M 351.00,27.00
           C 353.53,26.41 355.35,25.74 358.00,26.07
             369.63,27.55 370.54,38.87 373.38,48.00
             373.38,48.00 384.46,84.00 384.46,84.00
             386.15,90.17 390.28,106.05 393.00,111.00
             393.00,111.00 396.00,87.00 396.00,87.00
             396.00,87.00 396.00,61.00 396.00,61.00
             395.93,55.65 394.47,48.34 393.19,43.00
             392.76,40.25 391.55,36.78 393.19,34.15
             395.28,30.16 400.90,30.18 403.77,36.09
             406.38,41.49 407.99,58.62 408.00,65.00
             408.00,65.00 408.00,85.00 408.00,85.00
             408.00,85.00 405.16,109.00 405.16,109.00
             404.27,117.35 402.84,136.64 390.04,133.39
             383.83,131.82 382.34,121.47 380.85,116.00
             380.85,116.00 366.96,67.00 366.96,67.00
             366.96,67.00 366.96,79.00 366.96,79.00
             366.96,79.00 366.00,89.00 366.00,89.00
             366.00,89.00 366.96,102.00 366.96,102.00
             366.96,102.00 366.96,116.00 366.96,116.00
             366.96,116.00 367.81,130.00 367.81,130.00
             367.27,136.07 364.04,138.36 358.00,137.66
             355.67,137.39 353.34,136.62 351.85,134.70
             349.04,131.06 348.01,112.23 348.00,107.00
             348.00,107.00 348.00,72.00 348.00,72.00
             348.00,72.00 349.00,55.00 349.00,55.00
             349.02,45.10 349.71,36.80 351.00,27.00 Z
           M 475.00,123.00
           C 477.30,122.29 479.59,121.37 482.00,121.13
             489.33,120.39 494.57,126.29 490.55,130.69
             488.67,132.74 486.55,132.80 484.00,133.02
             478.90,133.46 470.85,136.54 467.04,134.77
             464.81,133.74 463.02,132.16 462.01,129.90
             460.62,126.80 461.11,122.38 460.96,119.00
             460.96,119.00 460.00,105.00 460.00,105.00
             460.00,105.00 462.00,83.00 462.00,83.00
             462.00,83.00 463.00,54.00 463.00,54.00
             463.06,48.91 464.80,34.23 467.41,30.22
             470.71,25.16 480.58,23.94 486.00,25.31
             489.19,26.13 492.52,29.23 491.34,32.81
             489.62,38.06 482.63,35.47 480.60,40.15
             479.85,41.87 480.01,46.69 479.71,49.00
             479.71,49.00 478.17,58.00 478.17,58.00
             477.51,64.64 478.58,64.18 477.00,73.00
             481.66,73.00 491.16,72.96 491.21,79.87
             491.26,85.46 478.96,83.18 476.02,88.15
             474.81,90.20 475.00,93.65 475.00,96.00
             475.00,96.00 475.00,123.00 475.00,123.00 Z
           M 198.00,67.00
           C 198.00,67.00 198.00,100.00 198.00,100.00
             198.00,100.00 198.96,112.00 198.96,112.00
             198.96,112.00 198.96,127.00 198.96,127.00
             199.00,128.89 199.12,132.18 198.40,133.87
             196.46,138.45 188.97,138.67 185.26,136.57
             180.13,133.67 180.01,119.51 180.00,114.00
             180.00,114.00 180.00,65.00 180.00,65.00
             180.00,65.00 181.00,50.00 181.00,50.00
             181.04,46.03 180.50,32.98 181.74,30.11
             184.58,23.48 195.65,26.00 198.78,31.06
             202.10,36.43 209.19,61.58 211.30,69.00
             211.30,69.00 223.00,111.00 223.00,111.00
             223.00,111.00 225.00,111.00 225.00,111.00
             225.00,105.35 225.47,99.59 226.30,94.00
             226.30,94.00 227.91,86.00 227.91,86.00
             227.91,86.00 227.91,73.00 227.91,73.00
             227.91,73.00 226.42,53.00 226.42,53.00
             226.00,50.10 223.31,36.76 223.84,35.19
             225.12,31.37 229.70,30.60 232.70,32.89
             235.06,34.70 237.13,40.12 237.66,43.00
             237.66,43.00 238.17,53.00 238.17,53.00
             238.17,53.00 240.00,72.00 240.00,72.00
             240.00,72.00 236.92,109.00 236.92,109.00
             236.92,109.00 235.31,117.00 235.31,117.00
             233.93,124.37 232.20,137.26 221.02,133.10
             214.62,130.71 213.76,120.73 212.25,115.00
             212.25,115.00 204.75,89.00 204.75,89.00
             203.02,82.54 200.90,72.69 198.00,67.00 Z
           M 46.00,89.00
           C 43.73,89.01 40.24,88.78 38.30,90.02
             35.73,91.65 34.60,96.22 33.80,99.00
             31.56,106.78 29.09,115.00 27.87,123.00
             27.10,128.10 26.02,138.59 18.09,136.02
             14.62,134.89 13.02,131.46 13.51,128.00
             13.51,128.00 20.37,104.00 20.37,104.00
             21.26,101.41 23.70,93.59 22.79,91.21
             21.78,88.57 17.31,86.93 18.47,82.10
             19.92,76.10 25.87,80.42 29.23,73.94
             29.23,73.94 32.17,64.00 32.17,64.00
             32.17,64.00 40.42,39.00 40.42,39.00
             43.03,31.54 44.35,25.47 54.00,27.23
             63.26,28.91 61.50,40.99 62.17,48.00
             62.17,48.00 63.00,90.00 63.00,90.00
             63.00,90.00 63.95,100.00 63.95,100.00
             63.95,100.00 63.95,115.00 63.95,115.00
             63.90,120.51 61.93,126.12 55.04,124.65
             50.89,123.76 49.81,119.60 49.02,116.00
             47.34,108.42 48.50,106.27 47.83,100.00
             47.83,100.00 46.00,89.00 46.00,89.00 Z
           M 315.00,89.00
           C 315.00,89.00 310.34,105.00 310.34,105.00
             310.34,105.00 305.88,128.00 305.88,128.00
             305.02,131.79 302.63,136.54 298.00,136.16
             291.91,135.65 291.69,129.51 292.86,125.00
             292.86,125.00 301.67,93.05 301.67,93.05
             301.89,88.07 295.27,87.73 297.00,82.11
             298.75,76.39 304.56,80.38 308.03,72.98
             308.03,72.98 320.87,34.00 320.87,34.00
             321.55,32.34 322.37,29.97 323.70,28.78
             326.44,26.20 333.66,26.65 336.52,28.78
             341.22,32.40 339.72,39.64 340.42,45.00
             340.42,45.00 341.00,63.00 341.00,63.00
             341.00,63.00 342.00,78.00 342.00,78.00
             342.00,78.00 342.00,97.00 342.00,97.00
             342.00,97.00 342.99,114.00 342.99,114.00
             342.66,127.21 332.36,126.57 329.44,121.85
             326.72,117.47 327.25,111.87 326.91,107.00
             326.91,107.00 325.00,89.00 325.00,89.00
             325.00,89.00 315.00,89.00 315.00,89.00 Z
           M 88.00,66.00
           C 88.00,66.00 95.37,54.00 95.37,54.00
             97.56,49.46 100.33,42.05 98.26,37.09
             97.11,34.33 93.39,31.33 90.31,33.08
             87.55,34.65 88.03,39.29 88.00,42.00
             87.90,48.82 85.51,59.73 88.00,66.00 Z
           M 47.00,58.00
           C 47.00,58.00 40.00,78.00 40.00,78.00
             40.00,78.00 46.00,78.00 46.00,78.00
             46.00,78.00 47.00,58.00 47.00,58.00 Z
           M 325.00,60.00
           C 322.21,64.02 319.88,73.06 319.00,78.00
             319.00,78.00 325.00,78.00 325.00,78.00
             325.00,78.00 325.00,60.00 325.00,60.00 Z
           M 88.44,89.57
           C 85.85,91.94 86.42,93.59 86.10,97.00
             86.10,97.00 86.10,116.00 86.10,116.00
             86.06,120.25 86.89,126.24 92.90,122.97
             100.72,118.72 107.76,84.91 88.44,89.57 Z" />
</svg>
